<?xml version="1.0" standalone="no"?>
<!DOCTYPE svg PUBLIC "-//W3C//DTD SVG 20010904//EN"
 "http://www.w3.org/TR/2001/REC-SVG-20010904/DTD/svg10.dtd">
<svg version="1.0" xmlns="http://www.w3.org/2000/svg"
 width="100.000000pt" height="100.000000pt" viewBox="0 0 100.000000 100.000000"
 preserveAspectRatio="xMidYMid meet">
<metadata>
Created by potrace 1.11, written by Peter Selinger 2001-2013
</metadata>
<g transform="translate(0.000000,100.000000) scale(0.100000,-0.100000)"
fill="#000000" stroke="none">
<path d="M345 950 c-3 -5 6 -26 21 -46 15 -20 36 -59 45 -87 18 -54 42 -68 47
-29 6 42 -68 172 -98 172 -5 0 -12 -4 -15 -10z"/>
<path d="M485 947 c-3 -7 -5 -47 -3 -88 2 -58 6 -74 18 -74 12 0 15 16 15 84
0 59 -4 86 -12 88 -7 3 -15 -2 -18 -10z"/>
<path d="M602 930 c-32 -41 -64 -117 -60 -143 5 -39 29 -24 47 30 9 28 30 67
45 87 26 35 27 57 3 55 -7 0 -22 -13 -35 -29z"/>
<path d="M227 883 c-19 -18 -3 -31 45 -35 44 -5 57 -11 80 -39 22 -26 30 -31
40 -21 19 19 -9 63 -52 84 -35 18 -101 24 -113 11z"/>
<path d="M655 873 c-35 -19 -54 -42 -55 -65 0 -38 38 -28 52 14 2 6 26 16 53
23 30 7 50 18 50 26 0 20 -64 22 -100 2z"/>
<path d="M332 738 c-5 -7 -12 -32 -16 -55 -14 -106 -96 -292 -215 -491 -64
-106 -69 -120 -49 -140 17 -17 879 -17 896 0 20 20 15 33 -51 135 -119 183
-207 367 -227 475 -6 29 -13 61 -16 71 -7 21 -32 22 -60 3 -13 -10 -25 -11
-35 -5 -19 12 -96 11 -120 -2 -16 -8 -29 -7 -54 5 -40 19 -40 19 -53 4z m54
-60 c12 -35 12 -39 -8 -93 -17 -49 -12 -75 12 -60 17 10 40 68 47 118 6 49 15
57 66 57 31 0 37 -3 37 -22 0 -32 39 -108 56 -108 18 0 31 30 16 39 -22 13
-31 56 -16 76 11 15 17 16 26 7 7 -7 9 -12 6 -12 -13 0 34 -146 72 -227 35
-75 36 -81 16 -72 -12 6 -37 32 -55 58 -36 53 -73 77 -99 62 -9 -5 -27 -33
-41 -63 -29 -58 -45 -66 -64 -28 -8 15 -23 26 -38 28 -22 3 -37 -9 -84 -63
-48 -54 -60 -63 -72 -53 -21 17 -12 58 31 155 21 46 45 114 54 153 17 74 26
84 38 48z m238 -257 c40 -58 70 -82 104 -85 28 -2 38 -13 97 -112 37 -60 71
-113 76 -119 5 -5 9 -13 9 -17 0 -4 -186 -8 -414 -8 l-414 0 66 114 67 114 21
-19 c32 -30 67 -16 121 50 47 59 63 71 63 50 0 -23 33 -49 61 -49 32 0 62 32
79 86 15 44 31 43 64 -5z"/>
</g>
</svg>
